<svg width="22" height="22" viewBox="0 0 22 22" fill="none" xmlns="http://www.w3.org/2000/svg">
<path d="M11 0C17.0751 0 22 4.92487 22 11C22 17.0751 17.0751 22 11 22C4.92487 22 0 17.0751 0 11C0 4.92487 4.92487 0 11 0ZM11 1.64974C5.836 1.64974 1.64974 5.836 1.64974 11C1.64974 16.164 5.836 20.3503 11 20.3503C16.164 20.3503 20.3503 16.164 20.3503 11C20.3503 5.836 16.164 1.64974 11 1.64974ZM10.9962 4.39932C14.6396 4.39932 17.5931 7.35285 17.5931 10.9962C17.5931 14.6396 14.6396 17.5931 10.9962 17.5931C7.35285 17.5931 4.39932 14.6396 4.39932 10.9962C4.39932 7.35285 7.35285 4.39932 10.9962 4.39932Z" fill="#212121"/>
</svg>
