<svg width="101" height="90" viewBox="0 0 101 90" fill="none" xmlns="http://www.w3.org/2000/svg">
<path d="M2.34 77.4546C2.34 78.7546 3.224 79.6386 4.524 79.6386C5.824 79.6386 6.708 78.7546 6.708 77.4546V72.8526H11.57C15.418 72.8526 18.226 70.3826 18.226 66.5346C18.226 62.6606 15.444 60.2166 11.57 60.2166H4.888C3.146 60.2166 2.34 61.0486 2.34 62.7906V77.4546ZM6.708 63.7786H10.816C12.558 63.7786 13.91 64.7146 13.91 66.4826C13.91 68.2246 12.558 69.1866 10.816 69.1866H6.708V63.7786ZM26.7666 60.0606C25.4406 60.0606 24.5826 60.7106 24.1406 61.7766L17.9006 76.9086C17.4326 78.0526 17.9526 79.1706 19.1486 79.5346C20.3446 79.9246 21.4366 79.2746 21.9046 78.0786L23.0486 75.0106H30.4586L31.6286 78.0786C32.0966 79.2746 33.1886 79.9246 34.3586 79.5346C35.5806 79.1706 36.1006 78.0526 35.6326 76.9086L29.3926 61.7766C28.9506 60.7106 28.0926 60.0606 26.7666 60.0606ZM26.7146 65.3126H26.8186L29.1066 71.3706H24.4266L26.7146 65.3126ZM38.9248 77.4026C38.9248 78.7026 39.7568 79.6386 41.0568 79.6386C42.3568 79.6386 43.1888 78.7286 43.1888 77.4026V66.9766H43.2668L49.9488 78.2346C50.5728 79.2226 51.5088 79.6386 52.8088 79.6386C54.6808 79.6386 55.3308 78.5726 55.3308 76.7006V62.2966C55.3308 60.9966 54.4988 60.0606 53.1988 60.0606C51.8988 60.0606 51.0668 60.9966 51.0668 62.2966V73.2426H50.9888L44.2548 61.4126C43.6828 60.4766 42.9288 60.0606 41.6288 60.0606C39.6788 60.0606 38.9248 61.1526 38.9248 63.1026V77.4026ZM64.1132 63.8826H67.6492C70.9252 63.8826 72.3032 66.5866 72.3032 69.8626C72.3032 73.1386 70.9252 75.8426 67.6492 75.8426H64.1132V63.8826ZM59.7452 76.9086C59.7452 78.6246 60.5772 79.4826 62.2932 79.4826H67.4412C73.2652 79.4826 76.6712 75.9466 76.6712 69.8626C76.6712 62.3226 72.3032 60.2166 67.5192 60.2166H62.2932C60.5772 60.2166 59.7452 61.0746 59.7452 62.7906V76.9086ZM86.8916 60.0606C85.5656 60.0606 84.7076 60.7106 84.2656 61.7766L78.0256 76.9086C77.5576 78.0526 78.0776 79.1706 79.2736 79.5346C80.4696 79.9246 81.5616 79.2746 82.0296 78.0786L83.1736 75.0106H90.5836L91.7536 78.0786C92.2216 79.2746 93.3136 79.9246 94.4836 79.5346C95.7056 79.1706 96.2256 78.0526 95.7576 76.9086L89.5176 61.7766C89.0756 60.7106 88.2176 60.0606 86.8916 60.0606ZM86.8396 65.3126H86.9436L89.2316 71.3706H84.5516L86.8396 65.3126Z" fill="black"/>
<path d="M78.216 87.536C78.216 87.936 78.48 88.208 78.88 88.208C79.28 88.208 79.536 87.936 79.536 87.536V83.424H80.832C81.216 83.424 81.52 83.224 81.52 82.824C81.52 82.432 81.216 82.232 80.832 82.232H76.928C76.536 82.232 76.24 82.432 76.24 82.824C76.24 83.224 76.536 83.424 76.928 83.424H78.216V87.536ZM84.0249 82.184C83.6169 82.184 83.3529 82.384 83.2169 82.712L81.2969 87.368C81.1529 87.72 81.3129 88.064 81.6809 88.176C82.0489 88.296 82.3849 88.096 82.5289 87.728L82.8809 86.784H85.1609L85.5209 87.728C85.6649 88.096 86.0009 88.296 86.3609 88.176C86.7369 88.064 86.8969 87.72 86.7529 87.368L84.8329 82.712C84.6969 82.384 84.4329 82.184 84.0249 82.184ZM84.0089 83.8H84.0409L84.7449 85.664H83.3049L84.0089 83.8ZM91.1819 88.16C91.5739 88.16 91.8779 87.928 91.8779 87.552C91.8779 87.184 91.5739 86.944 91.1819 86.944H89.1099V82.856C89.1099 82.456 88.8299 82.184 88.4299 82.184C88.0299 82.184 87.7659 82.456 87.7659 82.856V87.368C87.7659 87.896 88.0219 88.16 88.5499 88.16H91.1819ZM92.7191 87.536C92.7191 87.936 92.9911 88.208 93.3911 88.208C93.7911 88.208 94.0711 87.936 94.0711 87.536V86.368L94.7111 85.744L96.5911 87.976C96.8151 88.224 97.2311 88.304 97.5191 88.056C97.8071 87.8 97.8071 87.408 97.5831 87.176L95.6391 84.84L97.2791 83.256C97.5511 82.992 97.5671 82.632 97.3271 82.376C97.0871 82.12 96.6631 82.128 96.3991 82.376L94.0711 84.608V82.864C94.0711 82.456 93.7911 82.184 93.3911 82.184C92.9911 82.184 92.7191 82.456 92.7191 82.864V87.536Z" fill="black"/>
<rect x="1" y="84" width="74.6667" height="2" rx="1" fill="black"/>
<rect x="1" y="53" width="99" height="2" rx="1" fill="black"/>
<path d="M100.333 87.6123C100.333 87.9504 100.035 88.2246 99.6667 88.2246C99.2985 88.2246 99 87.9504 99 87.6123C99 87.2741 99.2985 87 99.6667 87C100.035 87 100.333 87.2741 100.333 87.6123Z" fill="black"/>
<path d="M35.9457 52.6564C29.9457 52.6564 33.2594 57.5547 29.9457 57.5547C26.632 57.5547 23.9457 55.3616 23.9457 52.6564C23.9457 49.9511 26.632 47.7581 29.9457 47.7581C33.2594 47.7581 35.9457 49.9511 35.9457 52.6564Z" fill="black"/>
<path d="M79.9457 52.6564C79.9457 55.3616 77.2594 57.5547 73.9457 57.5547C70.632 57.5547 73.9457 53.2687 67.9457 52.6564C67.9457 49.9511 70.632 47.7581 73.9457 47.7581C77.2594 47.7581 79.9457 49.9511 79.9457 52.6564Z" fill="black"/>
<path d="M78.6419 22.426C80.0755 22.0154 81.3707 21.26 82.427 20.2185C83.4832 19.177 84.272 17.8774 84.732 16.4208C85.1921 14.9642 85.3109 13.3899 85.0793 11.8202C84.8477 10.2506 84.2719 8.72786 83.3967 7.3705C82.5215 6.01315 81.3705 4.85773 80.0331 3.99407C78.6958 3.13042 77.2081 2.5818 75.6858 2.39089C74.1636 2.19998 72.6477 2.3719 71.2561 2.89331C69.8644 3.41471 68.6346 4.27154 67.6621 5.39717L70.3093 7.87945C70.9442 7.14456 71.7471 6.58517 72.6557 6.24477C73.5642 5.90436 74.5539 5.79212 75.5477 5.91676C76.5415 6.0414 77.5128 6.39957 78.3859 6.96342C79.259 7.52726 80.0105 8.2816 80.5818 9.16776C81.1532 10.0539 81.5291 11.048 81.6803 12.0728C81.8315 13.0976 81.7539 14.1254 81.4536 15.0764C81.1533 16.0273 80.6383 16.8758 79.9487 17.5557C79.2591 18.2357 78.4135 18.7289 77.4776 18.9969L78.6419 22.426Z" fill="black"/>
<path d="M37.0773 8.80417C36.6161 7.68683 35.6924 6.7535 34.4011 6.09996C33.1097 5.44642 31.4971 5.09619 29.7287 5.08521C27.9604 5.07423 26.0999 5.40289 24.3382 6.03747C22.5766 6.67206 20.9771 7.58971 19.704 8.69628C18.4309 9.80286 17.53 11.0585 17.0937 12.3344C16.6573 13.6103 16.7013 14.8605 17.2211 15.9567C17.7409 17.053 18.7178 17.9557 20.0515 18.5725C21.3852 19.1892 23.0278 19.4976 24.8107 19.4662L25.9701 15.8302C25.0889 15.8458 24.277 15.6933 23.6178 15.3885C22.9585 15.0836 22.4757 14.6374 22.2188 14.0956C21.9619 13.5538 21.9401 12.9358 22.1558 12.3052C22.3715 11.6746 22.8168 11.0539 23.446 10.507C24.0753 9.96005 24.8658 9.50648 25.7366 9.19283C26.6073 8.87918 27.5269 8.71673 28.4009 8.72216C29.275 8.72759 30.072 8.90069 30.7103 9.22372C31.3486 9.54674 31.8051 10.0081 32.0331 10.5603L37.0773 8.80417Z" fill="black"/>
<path d="M19.8053 44.0844C7.83857 3.18102 90.1102 -20.7435 78.8913 42.5409" stroke="black" stroke-width="3" stroke-linecap="round"/>
<path fill-rule="evenodd" clip-rule="evenodd" d="M35.1066 27.7436C36.8523 28.987 40.077 27.852 42.3092 25.2086C44.5414 22.5651 44.9359 19.4142 43.1902 18.1708C41.4445 16.9274 38.2198 18.0623 35.9876 20.7058C33.7554 23.3492 33.3609 26.5002 35.1066 27.7436ZM41.2791 22.0422C42.0155 22.0422 42.6125 21.494 42.6125 20.8176C42.6125 20.1413 42.0155 19.5931 41.2791 19.5931C40.5428 19.5931 39.9458 20.1413 39.9458 20.8176C39.9458 21.494 40.5428 22.0422 41.2791 22.0422Z" fill="black"/>
<path fill-rule="evenodd" clip-rule="evenodd" d="M67.4477 28.2131C69.3479 27.1782 69.3821 24.0067 67.5242 21.1293C65.6662 18.2519 62.6197 16.7584 60.7196 17.7933C58.8194 18.8282 58.7852 21.9997 60.6432 24.8771C62.5011 27.7545 65.5476 29.248 67.4477 28.2131ZM62.6124 22.0422C63.3488 22.0422 63.9457 21.4939 63.9457 20.8176C63.9457 20.1413 63.3488 19.5931 62.6124 19.5931C61.876 19.5931 61.2791 20.1413 61.2791 20.8176C61.2791 21.4939 61.876 22.0422 62.6124 22.0422Z" fill="black"/>
<ellipse cx="51.9457" cy="33.0634" rx="6.66667" ry="2.44914" fill="black"/>
<rect x="50.6124" y="34.2879" width="2.66667" height="7.34741" rx="1.33333" fill="black"/>
</svg>
